<svg width="24" height="24" viewBox="0 0 24 24" fill="none" xmlns="http://www.w3.org/2000/svg">
<path d="M5 17H0V7H5V17ZM7 7V17L16 22V2L7 7ZM18.008 9.093C18.75 9.836 19.208 10.863 19.206 11.996C19.204 13.129 18.744 14.154 18.001 14.896L19.22 16.119C20.277 15.066 20.932 13.608 20.935 11.998C20.937 10.387 20.287 8.93 19.233 7.873L18.008 9.093ZM20.15 6.958C21.438 8.25 22.232 10.031 22.229 11.999C22.226 13.967 21.425 15.749 20.133 17.038L21.383 18.292C22.995 16.684 23.996 14.458 23.999 12.001C24.004 9.544 23.013 7.32 21.404 5.708L20.15 6.958Z" fill="white"/>
</svg>
