<svg width="24" height="24" viewBox="0 0 24 24" fill="none" xmlns="http://www.w3.org/2000/svg">
<g clip-path="url(#clip0_8_3397)">
<path d="M12 2C17.514 2 22 6.486 22 12C22 17.514 17.514 22 12 22C6.486 22 2 17.514 2 12C2 6.486 6.486 2 12 2ZM12 0C5.373 0 0 5.373 0 12C0 18.627 5.373 24 12 24C18.627 24 24 18.627 24 12C24 5.373 18.627 0 12 0ZM11 17H8V7H11V17ZM16 7H13V17H16V7Z" fill="white"/>
</g>
<defs>
<clipPath id="clip0_8_3397">
<rect width="24" height="24" fill="white"/>
</clipPath>
</defs>
</svg>
